<mxfile host="app.diagrams.net" modified="2022-07-01T04:56:04.740Z" agent="5.0 (Windows NT 10.0; Win64; x64) AppleWebKit/537.36 (KHTML, like Gecko) Chrome/103.0.5060.53 Safari/537.36 Edg/103.0.1264.37" etag="BLfuBJNzGVgMOsEMeKVe" version="20.0.4" type="github">
  <diagram name="Page-1" id="c7558073-3199-34d8-9f00-42111426c3f3">
    <mxGraphModel dx="1420" dy="834" grid="1" gridSize="10" guides="1" tooltips="1" connect="1" arrows="1" fold="1" page="1" pageScale="1" pageWidth="826" pageHeight="1169" background="#114B5F" math="0" shadow="0">
      <root>
        <mxCell id="0" />
        <mxCell id="1" parent="0" />
        <mxCell id="7" value="&lt;p style=&quot;margin: 0px; margin-top: 4px; text-align: center; text-decoration: underline;&quot;&gt;&lt;strong&gt;0&lt;/strong&gt;&lt;/p&gt;&lt;hr&gt;&lt;p style=&quot;margin: 0px; margin-left: 8px;&quot;&gt;Logistic&lt;/p&gt;&lt;p style=&quot;margin: 0px; margin-left: 8px;&quot;&gt;System&lt;/p&gt;" style="verticalAlign=middle;align=center;overflow=fill;fontSize=12;fontFamily=Helvetica;html=1;rounded=1;fontStyle=1;strokeWidth=3;fillColor=#F45B69;strokeColor=#028090;fontColor=#E4FDE1;" parent="1" vertex="1">
          <mxGeometry x="340" y="450" width="110" height="90" as="geometry" />
        </mxCell>
        <mxCell id="12" value="Customer" style="whiteSpace=wrap;align=center;verticalAlign=middle;fontStyle=1;strokeWidth=3;fillColor=#F45B69;strokeColor=#028090;fontColor=#E4FDE1;" parent="1" vertex="1">
          <mxGeometry x="680" y="625" width="90" height="60" as="geometry" />
        </mxCell>
        <mxCell id="64" value="Shipping status " style="text;spacingTop=-5;align=center;fontColor=#E4FDE1;" parent="1" vertex="1">
          <mxGeometry x="600.0000000000001" y="580.0000000000001" width="30" height="20" as="geometry" />
        </mxCell>
        <mxCell id="67" value="" style="edgeStyle=elbowEdgeStyle;elbow=horizontal;strokeColor=#028090;strokeWidth=2;labelBackgroundColor=#114B5F;fontColor=#E4FDE1;" parent="1" source="7" target="12" edge="1">
          <mxGeometry width="100" height="100" relative="1" as="geometry">
            <mxPoint x="660.0000000000002" y="520" as="sourcePoint" />
            <mxPoint x="760.0000000000002" y="420" as="targetPoint" />
          </mxGeometry>
        </mxCell>
        <mxCell id="qYVjV4pEvHZaJUq_iOfh-96" value="Employee" style="whiteSpace=wrap;align=center;verticalAlign=middle;fontStyle=1;strokeWidth=3;fillColor=#F45B69;strokeColor=#028090;fontColor=#E4FDE1;" vertex="1" parent="1">
          <mxGeometry x="170" y="685" width="90" height="60" as="geometry" />
        </mxCell>
        <mxCell id="qYVjV4pEvHZaJUq_iOfh-97" value="" style="edgeStyle=elbowEdgeStyle;elbow=horizontal;strokeColor=#028090;strokeWidth=2;exitX=0.6;exitY=1.033;exitDx=0;exitDy=0;exitPerimeter=0;labelBackgroundColor=#114B5F;fontColor=#E4FDE1;" edge="1" parent="1" source="7" target="qYVjV4pEvHZaJUq_iOfh-96">
          <mxGeometry width="100" height="100" relative="1" as="geometry">
            <mxPoint x="410" y="590" as="sourcePoint" />
            <mxPoint x="471" y="330" as="targetPoint" />
            <Array as="points">
              <mxPoint x="400" y="650" />
            </Array>
          </mxGeometry>
        </mxCell>
        <mxCell id="qYVjV4pEvHZaJUq_iOfh-98" value="Warehouse" style="whiteSpace=wrap;align=center;verticalAlign=middle;fontStyle=1;strokeWidth=3;fillColor=#F45B69;strokeColor=#028090;fontColor=#E4FDE1;" vertex="1" parent="1">
          <mxGeometry x="130" y="300" width="100" height="70" as="geometry" />
        </mxCell>
        <mxCell id="qYVjV4pEvHZaJUq_iOfh-100" value="" style="edgeStyle=elbowEdgeStyle;elbow=horizontal;strokeColor=#028090;strokeWidth=2;entryX=1;entryY=0.5;entryDx=0;entryDy=0;labelBackgroundColor=#114B5F;fontColor=#E4FDE1;" edge="1" parent="1" source="7" target="qYVjV4pEvHZaJUq_iOfh-98">
          <mxGeometry width="100" height="100" relative="1" as="geometry">
            <mxPoint x="377.5" y="550" as="sourcePoint" />
            <mxPoint x="270" y="560" as="targetPoint" />
          </mxGeometry>
        </mxCell>
        <mxCell id="qYVjV4pEvHZaJUq_iOfh-101" value="Transport" style="whiteSpace=wrap;align=center;verticalAlign=middle;fontStyle=1;strokeWidth=3;fillColor=#F45B69;strokeColor=#028090;fontColor=#E4FDE1;" vertex="1" parent="1">
          <mxGeometry x="580" y="230.00000000000003" width="90" height="60" as="geometry" />
        </mxCell>
        <mxCell id="qYVjV4pEvHZaJUq_iOfh-102" value="" style="edgeStyle=elbowEdgeStyle;elbow=horizontal;strokeColor=#028090;strokeWidth=2;exitX=0.609;exitY=0.011;exitDx=0;exitDy=0;exitPerimeter=0;labelBackgroundColor=#114B5F;fontColor=#E4FDE1;" edge="1" parent="1" source="7" target="qYVjV4pEvHZaJUq_iOfh-101">
          <mxGeometry width="100" height="100" relative="1" as="geometry">
            <mxPoint x="460" y="360" as="sourcePoint" />
            <mxPoint x="370" y="310" as="targetPoint" />
            <Array as="points">
              <mxPoint x="430" y="410" />
            </Array>
          </mxGeometry>
        </mxCell>
        <mxCell id="qYVjV4pEvHZaJUq_iOfh-103" value="Shipping&#xa;status report" style="text;whiteSpace=wrap;html=1;fontColor=#E4FDE1;" vertex="1" parent="1">
          <mxGeometry x="590" y="350" width="100" height="50" as="geometry" />
        </mxCell>
        <mxCell id="qYVjV4pEvHZaJUq_iOfh-104" value="" style="edgeStyle=elbowEdgeStyle;elbow=horizontal;strokeColor=#028090;strokeWidth=2;entryX=1.027;entryY=0.089;entryDx=0;entryDy=0;entryPerimeter=0;exitX=0.25;exitY=1;exitDx=0;exitDy=0;labelBackgroundColor=#114B5F;fontColor=#E4FDE1;" edge="1" parent="1" source="qYVjV4pEvHZaJUq_iOfh-101" target="7">
          <mxGeometry width="100" height="100" relative="1" as="geometry">
            <mxPoint x="580" y="320" as="sourcePoint" />
            <mxPoint x="530" y="450" as="targetPoint" />
            <Array as="points">
              <mxPoint x="580" y="380" />
            </Array>
          </mxGeometry>
        </mxCell>
        <mxCell id="qYVjV4pEvHZaJUq_iOfh-106" value="Customer&#39;s address" style="text;whiteSpace=wrap;html=1;fontColor=#E4FDE1;" vertex="1" parent="1">
          <mxGeometry x="430" y="230" width="140" height="40" as="geometry" />
        </mxCell>
        <mxCell id="qYVjV4pEvHZaJUq_iOfh-107" value="" style="edgeStyle=elbowEdgeStyle;elbow=horizontal;strokeColor=#028090;strokeWidth=2;exitX=0.5;exitY=1;exitDx=0;exitDy=0;entryX=0;entryY=0.75;entryDx=0;entryDy=0;labelBackgroundColor=#114B5F;fontColor=#E4FDE1;" edge="1" parent="1" source="qYVjV4pEvHZaJUq_iOfh-98" target="7">
          <mxGeometry width="100" height="100" relative="1" as="geometry">
            <mxPoint x="170" y="390" as="sourcePoint" />
            <mxPoint x="160" y="450" as="targetPoint" />
            <Array as="points">
              <mxPoint x="190" y="430" />
            </Array>
          </mxGeometry>
        </mxCell>
        <mxCell id="qYVjV4pEvHZaJUq_iOfh-108" value="Order information and&#xa;bill of lading" style="text;whiteSpace=wrap;html=1;fontColor=#E4FDE1;" vertex="1" parent="1">
          <mxGeometry x="350" y="720" width="150" height="50" as="geometry" />
        </mxCell>
        <mxCell id="qYVjV4pEvHZaJUq_iOfh-109" value="Picking list" style="text;whiteSpace=wrap;html=1;fontColor=#E4FDE1;" vertex="1" parent="1">
          <mxGeometry x="290" y="370" width="90" height="40" as="geometry" />
        </mxCell>
        <mxCell id="qYVjV4pEvHZaJUq_iOfh-110" value="Complete order" style="text;whiteSpace=wrap;html=1;fontColor=#E4FDE1;" vertex="1" parent="1">
          <mxGeometry x="90" y="450" width="120" height="40" as="geometry" />
        </mxCell>
        <mxCell id="qYVjV4pEvHZaJUq_iOfh-111" value="Shipping status and Ordering&#xa;list" style="text;whiteSpace=wrap;html=1;fontColor=#E4FDE1;" vertex="1" parent="1">
          <mxGeometry x="190" y="620" width="190" height="50" as="geometry" />
        </mxCell>
        <mxCell id="qYVjV4pEvHZaJUq_iOfh-112" value="" style="edgeStyle=elbowEdgeStyle;elbow=horizontal;strokeColor=#028090;strokeWidth=2;exitX=1.056;exitY=0.133;exitDx=0;exitDy=0;exitPerimeter=0;labelBackgroundColor=#114B5F;fontColor=#E4FDE1;" edge="1" parent="1" source="qYVjV4pEvHZaJUq_iOfh-96" target="7">
          <mxGeometry width="100" height="100" relative="1" as="geometry">
            <mxPoint x="230" y="670" as="sourcePoint" />
            <mxPoint x="310" y="560" as="targetPoint" />
            <Array as="points">
              <mxPoint x="360" y="680" />
            </Array>
          </mxGeometry>
        </mxCell>
        <mxCell id="qYVjV4pEvHZaJUq_iOfh-114" value="&lt;font style=&quot;font-size: 23px;&quot;&gt;นายพีระพัฒน์ ไม้แดง 6330200556&lt;/font&gt;" style="text;html=1;strokeColor=none;fillColor=none;align=center;verticalAlign=middle;whiteSpace=wrap;rounded=0;sketch=0;fontColor=#E4FDE1;" vertex="1" parent="1">
          <mxGeometry x="540" y="830" width="250" height="110" as="geometry" />
        </mxCell>
      </root>
    </mxGraphModel>
  </diagram>
</mxfile>
